<svg width="120" height="120" viewBox="0 0 120 120" fill="none" xmlns="http://www.w3.org/2000/svg">
  <rect width="120" height="120" rx="60" fill="#F3F4F6"/>
  <circle cx="60" cy="60" r="56" fill="#E8F5E9"/>
  <path d="M24 108C29 89 43 80 60 80C77 80 91 89 96 108" fill="#455A64"/>
  <ellipse cx="60" cy="55" rx="22" ry="26" fill="#B97C58"/>
  <path d="M39 49C39 34 48 25 61 25C74 25 82 34 82 48V54H39V49Z" fill="#212121"/>
  <path d="M47 86C51 89 55 91 60 91C65 91 69 89 73 86V80H47V86Z" fill="#A96C47"/>
  <circle cx="51.5" cy="57" r="2.5" fill="#2F1B14"/>
  <circle cx="68.5" cy="57" r="2.5" fill="#2F1B14"/>
  <path d="M53 68C57 71 63 71 67 68" stroke="#8D4E43" stroke-width="3" stroke-linecap="round"/>
  <path d="M44 93C48 87 53 84 60 84C67 84 72 87 76 93V108H44V93Z" fill="#4DB6AC"/>
</svg>
