<svg width="120" height="120" viewBox="0 0 120 120" fill="none" xmlns="http://www.w3.org/2000/svg">
  <rect width="120" height="120" rx="60" fill="#F3F4F6"/>
  <circle cx="60" cy="60" r="56" fill="#FFF3E0"/>
  <path d="M25 108C31 89 44 80 60 80C76 80 89 89 95 108" fill="#6D4C41"/>
  <ellipse cx="60" cy="56" rx="22" ry="27" fill="#D9A074"/>
  <path d="M37 50C37 32 48 24 61 24C74 24 84 35 84 53V60H37V50Z" fill="#3E2723"/>
  <path d="M35 58C38 45 46 36 56 33" stroke="#3E2723" stroke-width="7" stroke-linecap="round"/>
  <path d="M85 58C82 45 74 36 64 33" stroke="#3E2723" stroke-width="7" stroke-linecap="round"/>
  <circle cx="51.5" cy="59" r="2.5" fill="#2F1B14"/>
  <circle cx="68.5" cy="59" r="2.5" fill="#2F1B14"/>
  <path d="M53 70C57 72.5 63 72.5 67 70" stroke="#A45A52" stroke-width="3" stroke-linecap="round"/>
  <path d="M44 94C48 88 53 85 60 85C67 85 72 88 76 94V108H44V94Z" fill="#FFB74D"/>
</svg>
