<svg width="120" height="120" viewBox="0 0 120 120" fill="none" xmlns="http://www.w3.org/2000/svg">
  <rect width="120" height="120" rx="60" fill="#F3F4F6"/>
  <circle cx="60" cy="60" r="56" fill="#EDE7F6"/>
  <path d="M24 108C29 89 43 80 60 80C77 80 91 89 96 108" fill="#5D4037"/>
  <ellipse cx="60" cy="55" rx="22" ry="26" fill="#C58A61"/>
  <path d="M39 48C39 34 48 26 60 26C72 26 82 34 82 48V54H39V48Z" fill="#424242"/>
  <path d="M49 87C53 90 56 91.5 60 91.5C64 91.5 67 90 71 87V81H49V87Z" fill="#B77A52"/>
  <circle cx="51.5" cy="57" r="2.5" fill="#2F1B14"/>
  <circle cx="68.5" cy="57" r="2.5" fill="#2F1B14"/>
  <path d="M53 68C57 70.5 63 70.5 67 68" stroke="#8D4E43" stroke-width="3" stroke-linecap="round"/>
  <path d="M44 93C48 87 53 84 60 84C67 84 72 87 76 93V108H44V93Z" fill="#7986CB"/>
</svg>
