<svg width="120" height="120" viewBox="0 0 120 120" fill="none" xmlns="http://www.w3.org/2000/svg">
  <rect width="120" height="120" rx="60" fill="#F3F4F6"/>
  <circle cx="60" cy="60" r="56" fill="#E3F2FD"/>
  <path d="M24 108C30 89 44 80 60 80C76 80 90 89 96 108" fill="#546E7A"/>
  <ellipse cx="60" cy="55" rx="22" ry="26" fill="#C98E62"/>
  <path d="M39 49C39 33 49 24 61 24C73 24 82 33 82 47V56H39V49Z" fill="#263238"/>
  <path d="M48 87C52 90 56 92 60 92C64 92 68 90 72 87V81H48V87Z" fill="#B97B53"/>
  <circle cx="51.5" cy="57" r="2.5" fill="#2F1B14"/>
  <circle cx="68.5" cy="57" r="2.5" fill="#2F1B14"/>
  <path d="M53 68C57 70.5 63 70.5 67 68" stroke="#8D4E43" stroke-width="3" stroke-linecap="round"/>
  <path d="M44 93C48 87 53 84 60 84C67 84 72 87 76 93V108H44V93Z" fill="#64B5F6"/>
</svg>
